<?xml version="1.0" encoding="UTF-8"?><svg id="Laag_1" xmlns="http://www.w3.org/2000/svg" viewBox="0 0 216.65 221.94"><defs><style>.cls-1{stroke-width:0px;}</style></defs><path class="cls-1" d="m47.86,81.4c6.95-21.39,13.75-42.25,20.5-63.13,1.49-4.61,3.4-8.7,8.71-9.96,8.07-1.91,14.97,4.91,12.45,12.78-5.07,15.84-10.51,31.57-15.78,47.35-1.36,4.08-2.63,8.19-4.06,12.67h77.32c-.47-1.6-.87-3.13-1.38-4.62-5.93-17.65-11.88-35.3-17.83-52.94-2.34-6.96-.1-12.93,5.6-14.95,5.99-2.13,11.85,1.03,14.21,8.21,6.6,20.07,13.07,40.19,19.39,60.35,1.01,3.23,2.27,4.56,5.83,4.37,6.65-.35,13.33-.2,19.99-.1,5.76.08,7.81,2.16,7.82,7.9.03,26.99.02,53.99-.02,80.98,0,5.65-2.22,7.72-8.59,7.74-16.33.04-32.66-.12-48.99-.1-38.66.06-77.31.16-115.97.28-8.49.02-10.51-2.04-10.49-10.6.04-25.49.04-50.99,0-76.48-.01-7.88,1.72-9.74,9.59-9.76,7.15-.02,14.3,0,21.68,0Z"/><path class="cls-1" d="m108.59,214.52c-27.49,0-54.98-.04-82.46.04-5.25.01-8.52-2.46-10.16-7.19-1.57-4.53-.1-9.69,4.08-11.73,2.81-1.37,6.37-1.69,9.6-1.69,39.32-.04,78.63.09,117.95.13,13.49.01,26.99-.2,40.48-.13,2.76.01,5.74.32,8.23,1.4,4.17,1.81,6.11,6.85,5.09,11.43-.98,4.42-5.17,7.66-10.34,7.67-27.49.04-54.98.02-82.46.02v.05Z"/></svg>